/* XPM */
static char * bottom_right_inactive_xpm[] = {
"10 10 3 1",
" 	c None",
".	c #E2E2E2",
"+	c #939393",
"        .+",
"        .+",
"        .+",
"        .+",
"        .+",
"        .+",
"        .+",
"        .+",
".........+",
"+++++++++ "};
