/* XPM */
static char * bottom_left_inactive_xpm[] = {
"10 10 3 1",
" 	c None",
".	c #939393",
"+	c #E2E2E2",
".+        ",
".+        ",
".+        ",
".+        ",
".+        ",
".+        ",
".+        ",
".+        ",
".+++++++++",
" ........."};
