/* XPM */
static char * menu_active_xpm[] = {
"16 28 52 1",
" 	c #939393",
".	c #FBFBFB",
"+	c #F3F3F3",
"@	c #F2F2F2",
"#	c #F1F1F1",
"$	c #F0F0F0",
"%	c #EFEFEF",
"&	c #DEDEDE",
"*	c #B1B1B1",
"=	c #C2C2C2",
"-	c #C6C6C6",
";	c #D9D9D9",
">	c #BBBBBB",
",	c #ADADAD",
"'	c #AFAFAF",
")	c #D4D4D4",
"!	c #D5D5D5",
"~	c #CBCBCB",
"{	c #EEEEEE",
"]	c #B3B3B3",
"^	c #D6D6D6",
"/	c #EDEDED",
"(	c #C8C8C8",
"_	c #EAEAEA",
":	c #E6E6E6",
"<	c #B8B8B8",
"[	c #CDCDCD",
"}	c #E8E8E8",
"|	c #DFDFDF",
"1	c #B4B4B4",
"2	c #D7D7D7",
"3	c #ECECEC",
"4	c #D3D3D3",
"5	c #C5C5C5",
"6	c #EBEBEB",
"7	c #AEAEAE",
"8	c #C4C4C4",
"9	c #E5E5E5",
"0	c #B7B7B7",
"a	c #CCCCCC",
"b	c #E7E7E7",
"c	c #DDDDDD",
"d	c #E9E9E9",
"e	c #B9B9B9",
"f	c #CECECE",
"g	c #CFCFCF",
"h	c #C7C7C7",
"i	c #D8D8D8",
"j	c #C0C0C0",
"k	c #E4E4E4",
"l	c #E3E3E3",
"m	c #E2E2E2",
"                ",
"................",
"++++++++++++++++",
"++++++++++++++++",
"@@@@@@@@@@@@@@@@",
"################",
"################",
"$$$$$$$$$$$$$$$$",
"%%%%%%&*=%%%%%%%",
"%%%&-;>,')!~{%%%",
"{{{],,,,,,,,^{{{",
"///(,,,,,,,,_///",
"//:<,,[}|1,,2///",
"3&,,,<3334,,,533",
"6&7,,<6664,,,866",
"__90,,abc1,,^d__",
"___8,,,,,,,7d___",
"dd}*,,,,,,,,)ddd",
"}}};-2e,'fghb}}}",
"}}}}}}i7j}}}}}}}",
"bbbbbbbbbbbbbbbb",
"::::::::::::::::",
"::::::::::::::::",
"9999999999999999",
"kkkkkkkkkkkkkkkk",
"kkkkkkkkkkkkkkkk",
"llllllllllllllll",
"mmmmmmmmmmmmmmmm"};
