/* XPM */
static char * menu_prelight_xpm[] = {
"16 28 82 1",
" 	c None",
".	c #939393",
"+	c #FBFBFB",
"@	c #F3F3F3",
"#	c #F2F2F2",
"$	c #F1F1F1",
"%	c #F0F0F0",
"&	c #EFEFEF",
"*	c #C8D8EC",
"=	c #5D9AE3",
"-	c #84B1E6",
";	c #C7D8EC",
">	c #8CB6E7",
",	c #BCD1EB",
"'	c #74A8E5",
")	c #5294E2",
"!	c #5697E3",
"~	c #AFCAEA",
"{	c #B2CBEA",
"]	c #99BDE8",
"^	c #EDEEEF",
"/	c #EEEEEE",
"(	c #EDEEEE",
"_	c #609CE3",
":	c #B6CDEA",
"<	c #EDEDED",
"[	c #92B9E7",
"}	c #E5E9ED",
"|	c #DCE3EC",
"1	c #6EA4E4",
"2	c #9FC0E7",
"3	c #E2E6EC",
"4	c #CAD9EB",
"5	c #649EE3",
"6	c #B8CEE9",
"7	c #ECEDED",
"8	c #ECECEC",
"9	c #CBD9EA",
"0	c #6BA3E4",
"a	c #AFC9E8",
"b	c #8CB5E6",
"c	c #EBEBEB",
"d	c #CBD9E9",
"e	c #5495E2",
"f	c #6CA3E4",
"g	c #B1CAE8",
"h	c #89B4E5",
"i	c #EAEAEA",
"j	c #DEE3EA",
"k	c #6BA2E3",
"l	c #A1C0E6",
"m	c #E3E6EA",
"n	c #CBD8E8",
"o	c #659EE3",
"p	c #B7CDE7",
"q	c #E9E9EA",
"r	c #8BB4E5",
"s	c #5596E2",
"t	c #E6E8EA",
"u	c #E9E9E9",
"v	c #E7E8E9",
"w	c #5D9AE2",
"x	c #B6CCE6",
"y	c #E8E8E8",
"z	c #C2D3E7",
"A	c #92B8E4",
"B	c #BDD0E6",
"C	c #71A5E3",
"D	c #5696E2",
"E	c #A7C3E5",
"F	c #A8C4E6",
"G	c #93B9E5",
"H	c #E6E7E8",
"I	c #BDD0E7",
"J	c #5395E2",
"K	c #83AFE4",
"L	c #E7E7E7",
"M	c #E6E6E6",
"N	c #E5E5E5",
"O	c #E4E4E4",
"P	c #E3E3E3",
"Q	c #E2E2E2",
"................",
"++++++++++++++++",
"@@@@@@@@@@@@@@@@",
"@@@@@@@@@@@@@@@@",
"################",
"$$$$$$$$$$$$$$$$",
"$$$$$$$$$$$$$$$$",
"%%%%%%%%%%%%%%%%",
"&&&&&&*=-&&&&&&&",
"&&&;>,')!~{]^&&&",
"//(_)))))))):///",
"<<<[))))))))}<<<",
"<<|1))2345))67<<",
"89)))0888a)))b88",
"cde))fcccg)))hcc",
"iijk))lmno))pqii",
"iiir)))))))stiii",
"uuvw))))))))xuuu",
"yyyzABC)DEFGHyyy",
"yyyyyyIJKyyyyyyy",
"LLLLLLLLLLLLLLLL",
"MMMMMMMMMMMMMMMM",
"MMMMMMMMMMMMMMMM",
"NNNNNNNNNNNNNNNN",
"OOOOOOOOOOOOOOOO",
"OOOOOOOOOOOOOOOO",
"PPPPPPPPPPPPPPPP",
"QQQQQQQQQQQQQQQQ"};
