/* XPM */
static char * menu_inactive_xpm[] = {
"16 28 38 1",
" 	c #939393",
".	c #FBFBFB",
"+	c #F3F3F3",
"@	c #F2F2F2",
"#	c #F1F1F1",
"$	c #F0F0F0",
"%	c #EFEFEF",
"&	c #E6E6E6",
"*	c #CECECE",
"=	c #D7D7D7",
"-	c #D9D9D9",
";	c #E3E3E3",
">	c #D4D4D4",
",	c #CCCCCC",
"'	c #CDCDCD",
")	c #E1E1E1",
"!	c #DCDCDC",
"~	c #EEEEEE",
"{	c #CFCFCF",
"]	c #E2E2E2",
"^	c #EDEDED",
"/	c #DADADA",
"(	c #EBEBEB",
"_	c #E9E9E9",
":	c #D2D2D2",
"<	c #EAEAEA",
"[	c #D0D0D0",
"}	c #ECECEC",
"|	c #E5E5E5",
"1	c #D1D1D1",
"2	c #DFDFDF",
"3	c #D8D8D8",
"4	c #E4E4E4",
"5	c #E8E8E8",
"6	c #DBDBDB",
"7	c #E0E0E0",
"8	c #E7E7E7",
"9	c #D5D5D5",
"                ",
"................",
"++++++++++++++++",
"++++++++++++++++",
"@@@@@@@@@@@@@@@@",
"################",
"################",
"$$$$$$$$$$$$$$$$",
"%%%%%%&*=%%%%%%%",
"%%%&-;>,'))!~%%%",
"~~~{,,,,,,,,]~~~",
"^^^/,,,,,,,,(^^^",
"^^_:,,!<&[,,]^^^",
"}|,,,1}}}2,,,3}}",
"(4',,:(((2,,,=((",
"<<51,,6_4{,,7<<<",
"<<<=,,,,,,,'<<<<",
"__5*,,,,,,,,2___",
"555)37:,'!!38555",
"5555557,95555555",
"8888888888888888",
"&&&&&&&&&&&&&&&&",
"&&&&&&&&&&&&&&&&",
"||||||||||||||||",
"4444444444444444",
"4444444444444444",
";;;;;;;;;;;;;;;;",
"]]]]]]]]]]]]]]]]"};
