/* XPM */
static char * shade_inactive_xpm[] = {
"16 28 31 1",
" 	c #939393",
".	c #FBFBFB",
"+	c #F3F3F3",
"@	c #F2F2F2",
"#	c #F1F1F1",
"$	c #F0F0F0",
"%	c #EFEFEF",
"&	c #EEEEEE",
"*	c #E7E7E7",
"=	c #EDEDED",
"-	c #E6E6E6",
";	c #CDCDCD",
">	c #D9D9D9",
",	c #E8E8E8",
"'	c #CFCFCF",
")	c #CCCCCC",
"!	c #DDDDDD",
"~	c #ECECEC",
"{	c #E9E9E9",
"]	c #D0D0D0",
"^	c #DFDFDF",
"/	c #EBEBEB",
"(	c #EAEAEA",
"_	c #D3D3D3",
":	c #E1E1E1",
"<	c #D4D4D4",
"[	c #E0E0E0",
"}	c #E5E5E5",
"|	c #E4E4E4",
"1	c #E3E3E3",
"2	c #E2E2E2",
"                ",
"................",
"++++++++++++++++",
"++++++++++++++++",
"@@@@@@@@@@@@@@@@",
"################",
"################",
"$$$$$$$$$$$$$$$$",
"%%%%%%%%%%%%%%%%",
"%%%%%%%%%%%%%%%%",
"&&&&&&&*=&&&&&&&",
"======-;>=======",
"=====,'))!======",
"~~~~{]))))^~~~~~",
"///(_)))));:////",
"((((((((((((((((",
"(((:)))))))<((((",
"{{{[)))))))<{{{{",
",,,,,,,,,,,,,,,,",
",,,,,,,,,,,,,,,,",
"****************",
"----------------",
"----------------",
"}}}}}}}}}}}}}}}}",
"||||||||||||||||",
"||||||||||||||||",
"1111111111111111",
"2222222222222222"};
