/* XPM */
static char * shade_active_xpm[] = {
"16 28 34 1",
" 	c #939393",
".	c #FBFBFB",
"+	c #F3F3F3",
"@	c #F2F2F2",
"#	c #F1F1F1",
"$	c #F0F0F0",
"%	c #EFEFEF",
"&	c #EEEEEE",
"*	c #E1E1E1",
"=	c #EDEDED",
"-	c #E0E0E0",
";	c #B0B0B0",
">	c #C6C6C6",
",	c #E4E4E4",
"'	c #B2B2B2",
")	c #ADADAD",
"!	c #CDCDCD",
"~	c #ECECEC",
"{	c #E7E7E7",
"]	c #B6B6B6",
"^	c #D3D3D3",
"/	c #EBEBEB",
"(	c #E9E9E9",
"_	c #BBBBBB",
":	c #AEAEAE",
"<	c #D8D8D8",
"[	c #EAEAEA",
"}	c #D9D9D9",
"|	c #BEBEBE",
"1	c #E8E8E8",
"2	c #E6E6E6",
"3	c #E5E5E5",
"4	c #E3E3E3",
"5	c #E2E2E2",
"                ",
"................",
"++++++++++++++++",
"++++++++++++++++",
"@@@@@@@@@@@@@@@@",
"################",
"################",
"$$$$$$$$$$$$$$$$",
"%%%%%%%%%%%%%%%%",
"%%%%%%%%%%%%%%%%",
"&&&&&&&*=&&&&&&&",
"======-;>=======",
"=====,'))!======",
"~~~~{]))))^~~~~~",
"///(_))))):<////",
"[[[[[[[[[[[[[[[[",
"[[[})))))))|[[[[",
"(((<)))))))|((((",
"1111111111111111",
"1111111111111111",
"{{{{{{{{{{{{{{{{",
"2222222222222222",
"2222222222222222",
"3333333333333333",
",,,,,,,,,,,,,,,,",
",,,,,,,,,,,,,,,,",
"4444444444444444",
"5555555555555555"};
