/* XPM */
static char * shade_pressed_xpm[] = {
"16 28 41 1",
" 	c None",
".	c #939393",
"+	c #FBFBFB",
"@	c #F3F3F3",
"#	c #F2F2F2",
"$	c #F1F1F1",
"%	c #F0F0F0",
"&	c #EFEFEF",
"*	c #EEEEEE",
"=	c #CEDCEC",
"-	c #EBECEE",
";	c #EDEDED",
">	c #CDDBEB",
",	c #5898E2",
"'	c #8FB7E6",
")	c #D7E0EB",
"!	c #609CE3",
"~	c #5294E2",
"{	c #A1C1E8",
"]	c #ECECEC",
"^	c #DFE5EB",
"/	c #68A1E3",
"(	c #5394E2",
"_	c #B1CAE8",
":	c #EBEBEB",
"<	c #E5E8EB",
"[	c #74A7E4",
"}	c #5495E2",
"|	c #BBD0E8",
"1	c #EAEAEA",
"2	c #BED1E8",
"3	c #7DACE4",
"4	c #E9E9E9",
"5	c #BDD0E7",
"6	c #E8E8E8",
"7	c #E7E7E7",
"8	c #E6E6E6",
"9	c #E5E5E5",
"0	c #E4E4E4",
"a	c #E3E3E3",
"b	c #E2E2E2",
"................",
"++++++++++++++++",
"@@@@@@@@@@@@@@@@",
"@@@@@@@@@@@@@@@@",
"################",
"$$$$$$$$$$$$$$$$",
"$$$$$$$$$$$$$$$$",
"%%%%%%%%%%%%%%%%",
"&&&&&&&&&&&&&&&&",
"&&&&&&&&&&&&&&&&",
"*******=-*******",
";;;;;;>,';;;;;;;",
";;;;;)!~~{;;;;;;",
"]]]]^/~~~(_]]]]]",
":::<[~~~~~}|::::",
"1111111111111111",
"1112~~~~~~~31111",
"4445~~~~~~~34444",
"6666666666666666",
"6666666666666666",
"7777777777777777",
"8888888888888888",
"8888888888888888",
"9999999999999999",
"0000000000000000",
"0000000000000000",
"aaaaaaaaaaaaaaaa",
"bbbbbbbbbbbbbbbb"};
