/* XPM */
static char * stick_pressed_xpm[] = {
"16 28 29 1",
" 	c None",
".	c #939393",
"+	c #FBFBFB",
"@	c #F3F3F3",
"#	c #F2F2F2",
"$	c #F1F1F1",
"%	c #F0F0F0",
"&	c #EFEFEF",
"*	c #EEEEEE",
"=	c #C1D4EB",
"-	c #5294E2",
";	c #7EADE5",
">	c #EDEDED",
",	c #C0D3EA",
"'	c #ECECEC",
")	c #BFD2E9",
"!	c #EBEBEB",
"~	c #7DACE4",
"{	c #EAEAEA",
"]	c #BED1E8",
"^	c #E9E9E9",
"/	c #BDD0E7",
"(	c #E8E8E8",
"_	c #E7E7E7",
":	c #E6E6E6",
"<	c #E5E5E5",
"[	c #E4E4E4",
"}	c #E3E3E3",
"|	c #E2E2E2",
"................",
"++++++++++++++++",
"@@@@@@@@@@@@@@@@",
"@@@@@@@@@@@@@@@@",
"################",
"$$$$$$$$$$$$$$$$",
"$$$$$$$$$$$$$$$$",
"%%%%%%%%%%%%%%%%",
"&&&&&&&&&&&&&&&&",
"&&&&&&&&&&&&&&&&",
"******=-;*******",
">>>>>>,-;>>>>>>>",
">>>>>>,-;>>>>>>>",
"''')-------;''''",
"!!!)-------~!!!!",
"{{{{{{]-~{{{{{{{",
"{{{{{{]-~{{{{{{{",
"^^^^^^/-~^^^^^^^",
"((((((((((((((((",
"((((((((((((((((",
"________________",
"::::::::::::::::",
"::::::::::::::::",
"<<<<<<<<<<<<<<<<",
"[[[[[[[[[[[[[[[[",
"[[[[[[[[[[[[[[[[",
"}}}}}}}}}}}}}}}}",
"||||||||||||||||"};
