/* XPM */
static char * title_2_active_xpm[] = {
"4 28 20 1",
" 	c #939393",
".	c #FBFBFB",
"+	c #F3F3F3",
"@	c #F2F2F2",
"#	c #F1F1F1",
"$	c #F0F0F0",
"%	c #EFEFEF",
"&	c #EEEEEE",
"*	c #EDEDED",
"=	c #ECECEC",
"-	c #EBEBEB",
";	c #EAEAEA",
">	c #E9E9E9",
",	c #E8E8E8",
"'	c #E7E7E7",
")	c #E6E6E6",
"!	c #E5E5E5",
"~	c #E4E4E4",
"{	c #E3E3E3",
"]	c #E2E2E2",
"    ",
"....",
"++++",
"++++",
"@@@@",
"####",
"####",
"$$$$",
"%%%%",
"%%%%",
"&&&&",
"****",
"****",
"====",
"----",
";;;;",
";;;;",
">>>>",
",,,,",
",,,,",
"''''",
"))))",
"))))",
"!!!!",
"~~~~",
"~~~~",
"{{{{",
"]]]]"};
